<svg id="Capa_1" enable-background="new 0 0 512 512" height="512" viewBox="0 0 512 512" width="512" xmlns="http://www.w3.org/2000/svg"><g><path d="m175.282 239.71c-17.127 0-31.061 13.934-31.061 31.061s13.934 31.062 31.061 31.062 31.061-13.935 31.061-31.062-13.934-31.061-31.061-31.061zm0 47.095c-8.84 0-16.033-7.192-16.033-16.033 0-8.84 7.192-16.032 16.033-16.032s16.033 7.192 16.033 16.032-7.193 16.033-16.033 16.033z"/><path d="m305.657 270.771c0 17.127 13.934 31.062 31.061 31.062s31.061-13.935 31.061-31.062-13.934-31.061-31.061-31.061-31.061 13.934-31.061 31.061zm31.061-16.032c8.841 0 16.033 7.192 16.033 16.032 0 8.841-7.192 16.033-16.033 16.033-8.84 0-16.033-7.192-16.033-16.033 0-8.84 7.193-16.032 16.033-16.032z"/><path d="m511.143 376.469-33.876-201.735c-.022-.129-.047-.257-.075-.384-4.768-33.451-27.278-60.819-57.144-73.096v-13.947c0-12.43-10.112-22.543-22.543-22.543h-28.337c-12.43 0-22.543 10.113-22.543 22.543v15.086c-9.997 4.489-19.214 10.758-27.256 18.689h-126.739c-8.042-7.931-17.259-14.2-27.256-18.689v-15.086c0-12.43-10.112-22.543-22.543-22.543h-28.337c-12.43 0-22.543 10.113-22.543 22.543v13.948c-29.863 12.276-52.371 39.641-57.142 73.088-.029.129-.054.259-.076.391l-10.91 64.966c-.687 4.093 2.073 7.968 6.166 8.655 4.093.684 7.968-2.073 8.655-6.166l10.805-64.348c.069-.274.124-.554.162-.838 5.23-38.599 38.583-67.706 77.585-67.706 20.72 0 40.046 7.942 54.764 22.397v10.263c0 15.192 12.36 27.552 27.552 27.552h31.459c4.15 0 7.514-3.364 7.514-7.514 0-4.151-3.364-7.514-7.514-7.514h-31.459c-6.906 0-12.524-5.618-12.524-12.524v-5.849h118.022v5.849c0 6.906-5.618 12.524-12.524 12.524h-31.459c-4.15 0-7.514 3.364-7.514 7.514s3.364 7.514 7.514 7.514h31.459c15.192 0 27.552-12.36 27.552-27.552v-10.263c14.718-14.456 34.044-22.397 54.764-22.397 39.001 0 72.356 29.107 77.585 67.706.038.281.091.557.16.828l33.774 201.126c3.544 21.104-7.785 41.573-27.549 49.777-11.832 4.912-24.771 4.695-36.433-.607s-20.33-14.909-24.408-27.053l-6.917-20.597c-1.321-3.934-5.582-6.056-9.516-4.731-3.934 1.321-6.052 5.581-4.731 9.515l6.917 20.597c5.341 15.903 17.163 29.007 32.435 35.95 7.951 3.614 16.543 5.426 25.142 5.426 7.919 0 15.844-1.537 23.272-4.621 26.265-10.9 41.319-38.1 36.61-66.144zm-404.163-279.954v-9.208c0-4.144 3.371-7.514 7.514-7.514h28.337c4.144 0 7.514 3.371 7.514 7.514v9.84c-7.462-1.892-15.218-2.877-23.148-2.877-6.919 0-13.684.784-20.217 2.245zm254.675.632v-9.84c0-4.144 3.371-7.514 7.514-7.514h28.337c4.144 0 7.514 3.371 7.514 7.514v9.208c-6.533-1.461-13.298-2.245-20.217-2.245-7.93 0-15.686.985-23.148 2.877z"/><path d="m391.439 351.968-13.355-39.766c-.762-2.27-2.561-4.041-4.842-4.768-2.28-.726-4.772-.323-6.708 1.088-8.159 5.947-17.815 9.09-27.924 9.09-13.018 0-25.167-5.177-34.21-14.577-1.417-1.473-3.372-2.305-5.415-2.305h-85.969c-2.043 0-3.999.833-5.415 2.305-9.043 9.401-21.193 14.577-34.211 14.577-10.109 0-19.766-3.144-27.924-9.09-1.934-1.41-4.425-1.814-6.707-1.088-2.282.727-4.08 2.498-4.842 4.768l-29.848 88.873c-4.078 12.144-12.746 21.751-24.408 27.053-11.663 5.302-24.601 5.516-36.433.607-19.765-8.204-31.093-28.673-27.549-49.777l17.985-107.1c.687-4.093-2.073-7.968-6.166-8.655-4.098-.681-7.968 2.073-8.655 6.166l-17.985 107.1c-4.709 28.044 10.345 55.245 36.61 66.146 7.43 3.084 15.352 4.622 23.272 4.621 8.597 0 17.192-1.812 25.142-5.426 15.272-6.943 27.094-20.047 32.435-35.95l26.849-79.944c8.697 4.421 18.296 6.726 28.226 6.726 16.046 0 31.088-5.971 42.709-16.883h79.803c11.62 10.911 26.662 16.883 42.708 16.883 9.93 0 19.529-2.304 28.226-6.726l10.356 30.837c1.321 3.934 5.58 6.056 9.516 4.731 3.932-1.322 6.05-5.582 4.729-9.516z"/><path d="m127.801 140.968c-12.934 0-23.457 10.523-23.457 23.457v1.701h-1.701c-12.934 0-23.457 10.523-23.457 23.457s10.522 23.457 23.457 23.457h1.701v1.701c0 12.934 10.523 23.457 23.457 23.457s23.457-10.523 23.457-23.457v-1.701h1.701c12.934 0 23.457-10.523 23.457-23.457s-10.522-23.457-23.457-23.457h-1.701v-1.701c-.001-12.934-10.523-23.457-23.457-23.457zm25.158 40.187c4.647 0 8.428 3.781 8.428 8.428s-3.781 8.428-8.428 8.428h-9.216c-4.15 0-7.514 3.364-7.514 7.514v9.216c0 4.648-3.781 8.428-8.428 8.428s-8.429-3.781-8.429-8.428v-9.216c0-4.15-3.364-7.514-7.514-7.514h-9.215c-4.647 0-8.428-3.781-8.428-8.428 0-4.648 3.781-8.428 8.428-8.428h9.215c4.15 0 7.514-3.364 7.514-7.514v-9.216c0-4.648 3.781-8.428 8.429-8.428 4.647 0 8.428 3.781 8.428 8.428v9.216c0 4.15 3.364 7.514 7.514 7.514z"/><path d="m389.346 130.706c-12.1 0-21.944 9.844-21.944 21.944s9.844 21.944 21.944 21.944 21.944-9.844 21.944-21.944-9.844-21.944-21.944-21.944zm0 28.86c-3.813 0-6.915-3.103-6.915-6.915s3.102-6.915 6.915-6.915 6.915 3.103 6.915 6.915-3.102 6.915-6.915 6.915z"/><path d="m389.346 204.572c-12.1 0-21.944 9.844-21.944 21.944 0 12.099 9.844 21.943 21.944 21.943s21.944-9.844 21.944-21.944c0-12.099-9.844-21.943-21.944-21.943zm0 28.859c-3.813 0-6.915-3.103-6.915-6.915 0-3.813 3.102-6.915 6.915-6.915s6.915 3.103 6.915 6.915-3.102 6.915-6.915 6.915z"/><path d="m448.223 189.583c0-12.1-9.844-21.944-21.944-21.944s-21.944 9.844-21.944 21.944 9.844 21.944 21.944 21.944 21.944-9.844 21.944-21.944zm-28.859 0c0-3.813 3.102-6.915 6.915-6.915s6.915 3.103 6.915 6.915-3.102 6.915-6.915 6.915-6.915-3.102-6.915-6.915z"/><path d="m330.469 189.583c0 12.1 9.844 21.944 21.944 21.944s21.943-9.844 21.943-21.944-9.844-21.944-21.943-21.944c-12.1 0-21.944 9.844-21.944 21.944zm28.859 0c0 3.813-3.102 6.915-6.915 6.915s-6.915-3.103-6.915-6.915 3.102-6.915 6.915-6.915c3.813-.001 6.915 3.102 6.915 6.915z"/><path d="m233.812 218.681c4.15 0 7.514-3.364 7.514-7.514s-3.364-7.514-7.514-7.514h-22.491c-4.15 0-7.514 3.364-7.514 7.514s3.364 7.514 7.514 7.514z"/><path d="m300.679 203.653h-22.491c-4.15 0-7.514 3.364-7.514 7.514s3.364 7.514 7.514 7.514h22.491c4.15 0 7.514-3.364 7.514-7.514 0-4.151-3.364-7.514-7.514-7.514z"/></g></svg>