<?xml version="1.0" encoding="iso-8859-1"?>
<!-- Generator: Adobe Illustrator 19.0.0, SVG Export Plug-In . SVG Version: 6.00 Build 0)  -->
<svg version="1.1" id="Capa_1" xmlns="http://www.w3.org/2000/svg" xmlns:xlink="http://www.w3.org/1999/xlink" x="0px" y="0px"
	 viewBox="0 0 480 480" style="enable-background:new 0 0 480 480;" xml:space="preserve">
<g>
	<g>
		<path d="M120,56V0H56v56H0v64h56v56h64v-56h56V56H120z M160,104h-56v56H72v-56H16V72h56V16h32v56h56V104z"/>
	</g>
</g>
<g>
	<g>
		<path d="M304,56v64h176V56H304z M464,104H320V72h144V104z"/>
	</g>
</g>
<g>
	<g>
		<path d="M304,344v64h176v-64H304z M464,392H320v-32h144V392z"/>
	</g>
</g>
<g>
	<g>
		<path d="M392,272c-17.673,0-32,14.327-32,32c0,17.673,14.327,32,32,32c17.673,0,32-14.327,32-32C424,286.327,409.673,272,392,272z
			 M392,320c-8.837,0-16-7.163-16-16s7.163-16,16-16s16,7.163,16,16S400.837,320,392,320z"/>
	</g>
</g>
<g>
	<g>
		<path d="M392,416c-17.673,0-32,14.327-32,32c0,17.673,14.327,32,32,32c17.673,0,32-14.327,32-32C424,430.327,409.673,416,392,416z
			 M392,464c-8.837,0-16-7.163-16-16s7.163-16,16-16s16,7.163,16,16S400.837,464,392,464z"/>
	</g>
</g>
<g>
	<g>
		<polygon points="248,232 248,88 232,88 232,232 88,232 88,248 232,248 232,392 248,392 248,248 392,248 392,232 		"/>
	</g>
</g>
<g>
	<g>
		<path d="M187.312,328L136,276.688l-40,40l-39.936-39.936L4.688,326.976l40.064,40.96L4.688,408L56,459.312l40-40l40,40
			L187.312,408l-40-40L187.312,328z M164.688,408L136,436.688l-40-40l-40,40L27.312,408l39.936-39.936L27.312,327.2l28.624-28
			L96,339.312l40-40L164.688,328l-40,40L164.688,408z"/>
	</g>
</g>
<g>
</g>
<g>
</g>
<g>
</g>
<g>
</g>
<g>
</g>
<g>
</g>
<g>
</g>
<g>
</g>
<g>
</g>
<g>
</g>
<g>
</g>
<g>
</g>
<g>
</g>
<g>
</g>
<g>
</g>
</svg>
