<svg id="Capa_1" enable-background="new 0 0 512 512" height="512" viewBox="0 0 512 512" width="512" xmlns="http://www.w3.org/2000/svg"><g><path d="m360.608 377.278c-3.53-3.549-7.577-6.678-12.345-8.954-22.586-10.807-49.36-1.078-60 21.196-10.714 22.425-1.263 49.308 21.211 60.015 22.339 10.646 49.274 1.212 60-21.196v-.015l36.108-75.615 16.216 45.864 28.271-9.99-40.356-114.155z"/><path d="m277.476 159.046c-8.082-6.268-17.532-10.596-27.929-12.103-32.789-4.689-63.23 17.847-67.998 50.742-5.314 36.392 23.047 68.628 59.414 68.628 29.297 0 54.99-21.548 59.326-51.372.009-.06 0-.119.009-.179l.02.004 21.914-165.59 154.955-15.513-14.11 106.784c-7.921-6.156-17.313-10.611-27.931-12.151-32.585-4.724-63.21 17.717-67.998 50.742-5.314 36.392 23.047 68.628 59.414 68.628 29.297 0 54.99-21.548 59.326-51.387.009-.06-.002-.119.007-.179l.022.004 26.017-196.104-216.303 21.724z"/><path d="m44.421 512c28.167 0 49.338-25.605 44.282-53.13l-19.526-107.494 85.463-38.364 10.554 58.561c-4.988-.798-10.106-.916-15.242.022-24.417 4.479-40.648 27.858-36.152 52.368 4.058 22.121 23.333 36.885 44.165 36.885 28.231 0 49.424-25.475 44.355-53.115l-25.093-137.934-141.771 63.94 16.132 89.011c-4.948-.807-10.067-.972-15.267-.018-24.405 4.468-39.969 27.979-35.487 52.383 3.97 21.665 22.303 36.885 43.587 36.885z"/><path d="m45.114 234.115c20.693 13.7 48.6 8.119 62.358-12.656 6.65-10.02 8.994-22.031 6.606-33.809l-16.685-82.119 40.547 26.88 16.582-25.02-100.927-66.87 22.674 111.739c-18.704-2.684-34.799 5.874-43.812 19.482-13.787 20.819-7.994 48.697 12.657 62.373z"/></g></svg>