<?xml version="1.0"?>
<svg xmlns="http://www.w3.org/2000/svg" viewBox="0 0 512 512" width="512" height="512"><g id="outline"><path d="M176,112h32a8,8,0,0,0,0-16H184V56a8,8,0,0,0-16,0v48A8,8,0,0,0,176,112Z"/><path d="M184.845,331.578a8,8,0,0,0,14.31,0l24-48a8,8,0,0,0-14.31-7.156L192,310.111l-16.845-33.689a8,8,0,0,0-14.31,7.156Z"/><path d="M40,144h80a23.85,23.85,0,0,0,10.349-2.349A23.85,23.85,0,0,0,128,152v80a23.9,23.9,0,0,0,6.131,16A23.9,23.9,0,0,0,128,264v80a23.9,23.9,0,0,0,6.131,16A23.9,23.9,0,0,0,128,376v80a24.028,24.028,0,0,0,24,24h80a24.028,24.028,0,0,0,24-24V376a23.9,23.9,0,0,0-6.131-16A23.9,23.9,0,0,0,256,344V264a23.9,23.9,0,0,0-6.131-16A23.9,23.9,0,0,0,256,232V152a23.85,23.85,0,0,0-2.349-10.349A23.85,23.85,0,0,0,264,144h80a23.857,23.857,0,0,0,10.35-2.349A23.85,23.85,0,0,0,352,152v80a24.028,24.028,0,0,0,24,24h80a24.028,24.028,0,0,0,24-24V152a23.9,23.9,0,0,0-6.131-16A23.9,23.9,0,0,0,480,120V40a24.028,24.028,0,0,0-24-24H376a23.9,23.9,0,0,0-16,6.131A23.9,23.9,0,0,0,344,16H264a23.9,23.9,0,0,0-16,6.131A23.9,23.9,0,0,0,232,16H152a23.9,23.9,0,0,0-16,6.131A23.9,23.9,0,0,0,120,16H40A24.028,24.028,0,0,0,16,40v80A24.028,24.028,0,0,0,40,144Zm200,8v80a8.009,8.009,0,0,1-8,8H152a8.009,8.009,0,0,1-8-8V152a8.009,8.009,0,0,1,8-8h80A8.009,8.009,0,0,1,240,152Zm0,112v80a8.009,8.009,0,0,1-8,8H152a8.009,8.009,0,0,1-8-8V264a8.009,8.009,0,0,1,8-8h80A8.009,8.009,0,0,1,240,264Zm0,192a8.009,8.009,0,0,1-8,8H152a8.009,8.009,0,0,1-8-8V376a8.009,8.009,0,0,1,8-8h80a8.009,8.009,0,0,1,8,8ZM464,232a8.009,8.009,0,0,1-8,8H376a8.009,8.009,0,0,1-8-8V152a8.009,8.009,0,0,1,8-8h80a8.009,8.009,0,0,1,8,8ZM376,32h80a8.009,8.009,0,0,1,8,8v80a8.009,8.009,0,0,1-8,8H376a8.009,8.009,0,0,1-8-8V40A8.009,8.009,0,0,1,376,32ZM264,32h80a8.009,8.009,0,0,1,8,8v80a8.009,8.009,0,0,1-8,8H264a8.009,8.009,0,0,1-8-8V40A8.009,8.009,0,0,1,264,32ZM152,32h80a8.009,8.009,0,0,1,8,8v80a8.009,8.009,0,0,1-8,8H152a8.009,8.009,0,0,1-8-8V40A8.009,8.009,0,0,1,152,32ZM32,40a8.009,8.009,0,0,1,8-8h80a8.009,8.009,0,0,1,8,8v80a8.009,8.009,0,0,1-8,8H40a8.009,8.009,0,0,1-8-8Z"/><path d="M431.6,340.284a24.031,24.031,0,0,0-33.942,0l-57.372,57.373h0a24,24,0,0,0,0,33.942l57.373,57.373a24.03,24.03,0,0,0,33.942,0L488.97,431.6a24,24,0,0,0,0-33.941Zm46.058,80-57.371,57.372a8.009,8.009,0,0,1-11.314,0L351.6,420.284a8,8,0,0,1,0-11.313h0L408.97,351.6a8.01,8.01,0,0,1,11.314,0l57.373,57.373a8,8,0,0,1,0,11.313Z"/><path d="M432.97,419.256l-8.057,8.057-5.829-5.828,9.2-9.2a8,8,0,0,0-11.314-11.313l-9.2,9.2-5.83-5.829L410,396.284a8,8,0,0,0-11.314-11.313L384.97,398.685a8,8,0,0,0,0,11.314l34.285,34.285a8,8,0,0,0,11.314,0l13.714-13.714a8,8,0,0,0-11.314-11.314Z"/><path d="M64,112a8,8,0,0,0,8-8V96h8a24,24,0,0,0,0-48H64a8,8,0,0,0-8,8v48A8,8,0,0,0,64,112ZM88,72a8.009,8.009,0,0,1-8,8H72V64h8A8.009,8.009,0,0,1,88,72Z"/><path d="M276.422,111.155a8,8,0,0,0,10.733-3.577L289.944,102h28.112l2.789,5.578a8,8,0,1,0,14.31-7.156l-24-48a8,8,0,0,0-14.31,0l-24,48A8,8,0,0,0,276.422,111.155ZM304,73.889,310.056,86H297.944Z"/><path d="M408,82.422V104a8,8,0,0,0,16,0V82.422l14.656-21.984a8,8,0,1,0-13.312-8.876L416,65.578l-9.344-14.016a8,8,0,0,0-13.312,8.876Z"/><path d="M192,224a32,32,0,1,0-32-32A32.036,32.036,0,0,0,192,224Zm0-48a16,16,0,1,1-16,16A16.019,16.019,0,0,1,192,176Z"/></g></svg>
